<?xml version="1.0" encoding="UTF-8" standalone="no"?>
<!-- Created with Inkscape (http://www.inkscape.org/) -->

<svg
   width="206.9617mm"
   height="60.32362mm"
   viewBox="0 0 206.9617 60.323619"
   version="1.1"
   id="svg2664"
   inkscape:version="1.2.1 (9c6d41e410, 2022-07-14, custom)"
   sodipodi:docname="air_services.svg"
   xmlns:inkscape="http://www.inkscape.org/namespaces/inkscape"
   xmlns:sodipodi="http://sodipodi.sourceforge.net/DTD/sodipodi-0.dtd"
   xmlns="http://www.w3.org/2000/svg"
   xmlns:svg="http://www.w3.org/2000/svg">
  <sodipodi:namedview
     id="namedview2666"
     pagecolor="#505050"
     bordercolor="#eeeeee"
     borderopacity="1"
     inkscape:showpageshadow="0"
     inkscape:pageopacity="0"
     inkscape:pagecheckerboard="0"
     inkscape:deskcolor="#505050"
     inkscape:document-units="mm"
     showgrid="false"
     inkscape:zoom="1.096075"
     inkscape:cx="493.57935"
     inkscape:cy="119.51736"
     inkscape:window-width="1920"
     inkscape:window-height="1023"
     inkscape:window-x="1920"
     inkscape:window-y="0"
     inkscape:window-maximized="1"
     inkscape:current-layer="layer1" />
  <defs
     id="defs2661" />
  <g
     inkscape:label="Capa 1"
     inkscape:groupmode="layer"
     id="layer1"
     transform="translate(-5.3815547,-105.24466)">
    <path
       d="m 47.995928,164.35238 c -2.909768,-1.80476 -4.37906,-5.07923 -3.957466,-8.81964 l 0.357651,-3.17302 -8.059454,-0.84011 c -4.432698,-0.46206 -16.578627,-1.64322 -26.9909504,-2.62483 -13.6078152,-1.2828 8.1137754,-3.68931 60.6085494,-1.24448 l 9.420904,0.43878 1.007165,2.41044 c 0.553935,1.32579 1.700249,3.38385 2.54735,4.57352 l 1.540199,2.16299 -2.052429,-0.40702 c -1.128833,-0.22381 -5.239657,-0.7431 -9.135164,-1.15382 -3.895506,-0.41073 -8.118591,-0.91513 -9.384631,-1.12087 -2.098374,-0.34104 -2.301892,-0.21282 -2.301892,1.45142 0,7.10342 -7.843278,11.91709 -13.599832,8.34664 z m 4.39227,-3.37936 c 0,-0.97388 -0.284629,-1.77068 -0.632498,-1.77068 -0.826036,0 -1.6106,2.0687 -1.098687,2.897 0.77151,1.24831 1.731185,0.62393 1.731185,-1.12632 z m 2.41447,1.16674 c 0.205294,-0.33215 -0.08448,-1.20863 -0.643948,-1.94774 -0.9638,-1.2733 -1.018379,-1.24156 -1.039725,0.60392 -0.02168,1.86942 0.902831,2.60725 1.683673,1.34382 z m -4.539291,-2.22916 c 0.802323,-1.49917 0.28624,-1.80046 -1.330224,-0.77663 -0.536845,0.34004 -0.757074,0.97261 -0.489404,1.40573 0.675269,1.0926 0.948817,0.99802 1.819628,-0.6291 z m 6.70664,0.74381 c 0.228691,-0.37 -0.230592,-1.01866 -1.020611,-1.44146 -1.551163,-0.83017 -1.663749,-0.719 -1.006472,0.99386 0.482592,1.25762 1.401123,1.46041 2.027083,0.4476 z m -8.006933,-3.44151 c -1.905321,-0.28774 -2.585321,0.15125 -1.914884,1.23596 0.326132,0.52766 0.938201,0.49301 2.018682,-0.11431 l 1.550631,-0.8717 z m 9.091307,0.92701 c 0,-0.61065 -0.63921,-1.06241 -1.503271,-1.06241 -1.255938,0 -1.358207,0.17481 -0.62155,1.06241 0.484947,0.58435 1.161419,1.06243 1.503268,1.06243 0.341855,0 0.621553,-0.47808 0.621553,-1.06243 z m -4.249644,-1.41653 c 0,-0.58433 -0.459276,-1.06243 -1.020611,-1.06243 -1.183277,0 -1.982041,1.01092 -1.321052,1.67191 0.846502,0.8465 2.341663,0.45734 2.341663,-0.60948 z m -4.531058,-1.41641 c -1.353354,-1.02441 -2.551685,-0.83855 -2.551685,0.3958 0,0.36654 0.87649,0.65633 1.947754,0.64392 1.845502,-0.0213 1.877209,-0.076 0.603931,-1.03972 z m 8.780702,-0.0242 c 0,-0.86786 -0.285931,-0.9343 -1.416548,-0.32923 -0.779103,0.41695 -1.416549,0.90625 -1.416549,1.08731 0,0.18123 0.637446,0.32924 1.416549,0.32924 0.801398,0 1.416548,-0.47218 1.416548,-1.08732 z m -6.786533,-0.75916 c 1.336007,-0.51267 1.568443,-4.0968 0.235008,-3.62359 -0.486939,0.17266 -0.796377,1.06977 -0.687636,1.99328 0.187279,1.59053 0.146243,1.6088 -0.777231,0.34584 -0.737512,-1.0086 -1.109604,-1.11541 -1.527923,-0.43855 -0.321324,0.51992 -0.14407,1.15378 0.423087,1.51301 1.182241,0.74883 0.978395,0.73049 2.334706,0.21015 z m 6.078258,-1.3475 c 0,-0.17104 -0.956169,-0.80547 -2.124822,-1.4098 -2.115635,-1.09404 -2.124724,-1.09029 -2.102299,0.86714 0.02195,1.91675 0.05036,1.93051 1.135668,0.54939 1.089678,-1.38668 1.102719,-1.38168 0.618727,0.23797 -0.449805,1.50512 -0.360547,1.58275 0.989153,0.86043 0.815967,-0.43668 1.483573,-0.93395 1.483573,-1.10501 z m 87.471844,11.72582 c -2.70433,-1.1186 -4.75574,-4.08668 -5.13205,-7.42534 -0.20032,-1.77724 -0.40246,-3.2313 -0.44918,-3.23121 -0.0468,6e-5 -5.01079,0.62531 -11.03125,1.38946 -6.02046,0.76416 -11.07668,1.259 -11.23606,1.09961 -0.15939,-0.15929 0.41296,-1.18306 1.27186,-2.27482 0.8589,-1.09179 1.9945,-3.02089 2.52356,-4.28695 0.87231,-2.08743 1.24576,-2.30305 4.00824,-2.3146 1.67547,-0.008 12.76737,-0.46316 24.64866,-1.01371 48.45845,-2.24537 62.33189,-2.74725 62.80708,-2.27207 0.27451,0.27452 0.0379,0.96027 -0.52566,1.52394 -0.73133,0.73133 -5.58661,1.44542 -16.9564,2.49389 -8.7624,0.80802 -20.34812,1.93291 -25.74605,2.49972 -5.39793,0.56681 -10.41174,1.03058 -11.14178,1.03058 -1.15804,0 -1.27371,0.39134 -0.90684,3.0679 0.94546,6.89789 -5.8295,12.32136 -12.13413,9.7136 z m 3.16472,-4.10514 c -0.0213,-1.8455 -0.076,-1.8772 -1.03973,-0.60392 -1.02441,1.35337 -0.83855,2.55168 0.39578,2.55168 0.36656,0 0.65634,-0.87648 0.64395,-1.94776 z m 2.43699,1.34382 c 0.20529,-0.33216 -0.0845,-1.20863 -0.64394,-1.94774 -0.96381,-1.27328 -1.01839,-1.24158 -1.03974,0.60392 -0.0216,1.86942 0.90283,2.60725 1.68368,1.34382 z m -4.03313,-3.37562 c -0.67918,-0.67919 -2.6988,1.172 -2.18525,2.00297 0.25586,0.41399 0.8813,0.24494 1.54367,-0.41753 0.61243,-0.61243 0.90114,-1.32589 0.64158,-1.58544 z m 6.20047,1.89027 c 0.22869,-0.37 -0.23058,-1.01867 -1.0206,-1.44146 -1.55117,-0.83018 -1.66375,-0.719 -1.00647,0.99387 0.48258,1.25759 1.40112,1.46044 2.02707,0.44759 z m -8.00692,-3.44151 c -1.90532,-0.28774 -2.58532,0.15124 -1.91488,1.23596 0.32612,0.5277 0.9382,0.49299 2.01867,-0.11431 l 1.55063,-0.8717 z m 9.34744,0.92702 c 0.29774,-0.7759 -0.0872,-1.06242 -1.4275,-1.06242 -1.55097,0 -1.69863,0.16464 -0.95347,1.06242 0.48495,0.58433 1.12732,1.0624 1.42751,1.0624 0.30017,0 0.72922,-0.47807 0.95346,-1.0624 z m -4.50579,-1.41654 c 0,-0.58433 -0.47808,-1.06242 -1.06241,-1.06242 -0.58431,0 -1.06241,0.47809 -1.06241,1.06242 0,0.58433 0.4781,1.06242 1.06241,1.06242 0.58433,0 1.06241,-0.47809 1.06241,-1.06242 z m -4.53105,-1.41641 c -1.35335,-1.0244 -2.55169,-0.83851 -2.55169,0.39579 0,0.36656 0.8765,0.65634 1.94776,0.64394 1.8455,-0.0214 1.87721,-0.076 0.60393,-1.03973 z m 9.04181,0.0126 c -0.30487,-0.79446 -0.72967,-0.87445 -1.74845,-0.3292 -1.81282,0.97019 -1.69349,1.37863 0.40271,1.37863 1.25358,0 1.63447,-0.29701 1.34574,-1.04943 z m -8.09282,-1.85971 c -0.60159,-1.12406 -0.99973,-1.29163 -1.61261,-0.67875 -0.61289,0.61288 -0.55298,0.9787 0.24269,1.48173 1.71776,1.08601 2.22254,0.79013 1.36993,-0.80298 z m 6.37856,0.47431 c 0.689,-0.8302 0.44334,-1.22606 -1.32983,-2.14304 l -2.17494,-1.12471 0.0225,1.96594 c 0.0219,1.91675 0.0503,1.93051 1.13567,0.54941 1.09503,-1.39352 1.10541,-1.39064 0.63802,0.17721 -0.53493,1.79418 0.4279,2.1184 1.70856,0.5753 z m -4.21305,-1.43846 c 0,-1.25358 -0.29701,-1.63445 -1.04943,-1.34571 -0.79447,0.30484 -0.87446,0.72964 -0.32921,1.74844 0.97018,1.8128 1.37864,1.69349 1.37864,-0.40273 z m -52.766411,8.21465 c -6.254831,-1.63617 -11.564926,-6.01597 -13.528954,-11.1587 -1.782231,-4.66671 -1.103549,-12.37574 1.512718,-17.18269 6.588698,-12.10561 21.064657,-14.71226 30.317667,-5.45926 5.52687,5.52689 8.0763,14.3776 6.13681,21.30477 -1.22707,4.38264 -5.46261,9.00375 -10.06876,10.98523 -3.98654,1.71495 -10.835796,2.43503 -14.369481,1.51065 z m -6.286838,-22.28229 c 0.0498,-0.0656 0.310967,-0.83661 0.580388,-1.71311 0.431593,-1.40408 0.24047,-1.59362 -1.606921,-1.59362 -2.060941,0 -2.956603,1.00635 -2.956603,3.32196 0,0.82568 0.460033,0.96579 1.946303,0.59276 1.070464,-0.26867 1.987039,-0.54227 2.036833,-0.60799 z m 27.180929,0.18819 c 0,-1.78009 -1.57603,-3.4948 -3.21215,-3.4948 -2.30183,0 -2.41466,2.60988 -0.15217,3.51929 2.18996,0.88026 3.36431,0.87169 3.36431,-0.0242 z m -17.608004,-0.66172 c 0.933356,0 1.317695,-0.51646 1.317695,-1.7707 0,-1.68838 -0.193917,-1.77066 -4.173865,-1.77066 -4.253019,0 -5.033697,0.51823 -5.033697,3.34143 0,0.90205 0.593221,1.01945 3.286087,0.65034 1.80735,-0.2476 3.879055,-0.45041 4.60378,-0.45041 z M 110.457,138.1326 c -0.006,-0.29215 -0.20186,-1.24833 -0.43675,-2.12481 -0.38152,-1.42368 -0.87146,-1.5936 -4.5941,-1.5936 -3.94517,0 -4.16704,0.092 -4.16704,1.72789 0,1.47515 0.38856,1.76858 2.65603,2.00575 4.97331,0.52024 6.55155,0.51655 6.54186,-0.016 z m -44.965733,-4.20044 c -5.064158,-0.58002 -9.340363,-1.18693 -9.502679,-1.34869 -0.941175,-0.93804 1.781338,-1.06882 12.664254,-0.60835 10.599837,0.4485 12.104572,0.65729 11.915904,1.65326 -0.291995,1.54139 -3.67649,1.60956 -15.077479,0.30378 z m 54.596213,0.0267 c -0.24561,-0.64008 -0.3594,-1.23816 -0.25284,-1.32906 0.10656,-0.091 5.93076,-0.39086 12.94268,-0.66661 15.36343,-0.60413 15.95456,0.3669 1.23158,2.02317 -12.54889,1.41169 -13.36977,1.41004 -13.92142,-0.0275 z M 99.258405,112.83995 c 0.260386,-5.95323 0.755125,-8.31857 1.548965,-7.40534 0.14108,0.1623 0.46625,3.40267 0.72257,7.2008 0.45409,6.72875 0.42722,6.90565 -1.0493,6.90565 -1.462118,0 -1.505028,-0.23531 -1.222235,-6.70111 z"
       style="fill:#4090ff;fill-opacity:1;stroke-width:0.708273"
       id="path2617"
       sodipodi:nodetypes="sscscccccccscsssssssscssscsscsscscccssssssssssscssssssccscssccscsscssssscscssccssssssscsscsscscsccsssscscccsscssssssssssssssssscsscccsscccsssssscsssscsssscssssssssscscssssccscssscccscsssss" />
  </g>
</svg>
